<svg xmlns="http://www.w3.org/2000/svg" version="1.1" width="500" height="500">

<path d="M0 0 C0.80052795 0.00007553 1.60105591 0.00015106 2.42584229 0.00022888 C3.70730133 0.00797081 3.70730133 0.00797081 5.01464844 0.01586914 C5.89683044 0.01728409 6.77901245 0.01869904 7.68792725 0.02015686 C10.49999409 0.02574538 13.31198074 0.03829578 16.12402344 0.05102539 C18.03287645 0.05604187 19.94173072 0.06060452 21.85058594 0.06469727 C26.52509591 0.07571105 31.19954609 0.09296781 35.87402344 0.11352539 C36.12356349 1.54762907 36.34794986 2.98612611 36.56152344 4.42602539 C36.68914062 5.2265332 36.81675781 6.02704102 36.94824219 6.85180664 C36.87402344 9.11352539 36.87402344 9.11352539 35.59999084 10.88542175 C32.81550261 12.86671069 29.78213182 12.47294947 26.49511719 12.41430664 C25.00097218 12.42195756 23.50683129 12.43044896 22.01269531 12.43969727 C19.67146215 12.43750076 17.3310639 12.4262576 14.98999023 12.3984375 C6.49379052 12.31989437 -0.7815016 12.35907587 -8.16088867 17.14160156 C-13.04789706 22.04561035 -14.57710004 26.50540352 -14.67919922 33.25283813 C-14.67267334 34.15174774 -14.66614746 35.05065735 -14.65942383 35.97680664 C-14.6680394 36.94194183 -14.67665497 37.90707703 -14.68553162 38.90145874 C-14.70814602 42.0765908 -14.70146129 45.25083708 -14.69238281 48.42602539 C-14.69762006 50.6412787 -14.70389692 52.85652977 -14.71116638 55.07177734 C-14.72156202 59.70852167 -14.71702042 64.34495893 -14.70239258 68.98168945 C-14.68519889 74.91686749 -14.70871249 80.85107796 -14.74388218 86.78614807 C-14.76586469 91.35874824 -14.76441267 95.93111715 -14.75611687 100.50375366 C-14.75529797 102.69177309 -14.76214958 104.8798096 -14.77688789 107.06777954 C-14.79435066 110.12920272 -14.7797763 113.18889009 -14.75708008 116.25024414 C-14.76877228 117.14915375 -14.78046448 118.04806335 -14.79251099 118.97421265 C-14.69733057 125.29944963 -13.11792324 128.23253476 -9.12597656 133.11352539 C-9.12597656 133.77352539 -9.12597656 134.43352539 -9.12597656 135.11352539 C-3.73419042 136.22648391 1.49639759 136.27482755 6.97509766 136.29052734 C8.47869339 136.30038414 8.47869339 136.30038414 10.01266479 136.31044006 C13.31801436 136.3300937 16.62331873 136.34181591 19.92871094 136.35180664 C21.6265592 136.35791993 21.6265592 136.35791993 23.35870743 136.36415672 C29.34607 136.38498027 35.33340988 136.39929993 41.32080078 136.40869141 C47.49672818 136.41976812 53.67229653 136.45419361 59.84809685 136.49386311 C64.60597395 136.52002399 69.36376522 136.52838264 74.12170792 136.53197289 C76.39822957 136.53683752 78.67474741 136.54844794 80.95119858 136.56701088 C84.13914193 136.59139785 87.32615179 136.59043813 90.51416016 136.58349609 C91.44844849 136.59630615 92.38273682 136.60911621 93.34533691 136.62231445 C99.32846863 136.57496336 103.88886541 135.53605326 108.87402344 132.11352539 C113.86266054 126.74114697 114.01923907 122.99565608 114.00341797 115.87792969 C114.00517029 114.92006561 114.00692261 113.96220154 114.00872803 112.97531128 C114.01314353 109.79610401 114.0102089 106.61695201 114.00683594 103.43774414 C114.00750923 101.23297617 114.00847947 99.02820827 114.00973511 96.82344055 C114.01121181 92.19560034 114.00905902 87.56777939 114.00439453 82.93994141 C113.99870727 77.00812839 114.00197007 71.07636071 114.007967 65.14454937 C114.01158189 60.58838052 114.01042957 56.03222241 114.0078392 51.47605324 C114.00717199 49.28918261 114.0079912 47.10231101 114.01031876 44.91544151 C114.01285935 41.85603638 114.00898429 38.79670438 114.00341797 35.73730469 C114.00645432 34.38039772 114.00645432 34.38039772 114.009552 32.99607849 C113.99576655 28.9042618 113.90802629 25.10420932 112.87402344 21.11352539 C112.21402344 21.11352539 111.55402344 21.11352539 110.87402344 21.11352539 C109.20735677 19.44685872 107.5406901 17.78019206 105.87402344 16.11352539 C101.61979687 12.87151968 97.75586399 12.65924714 92.58105469 12.63696289 C91.79381516 12.62138336 91.00657562 12.60580383 90.19548035 12.5897522 C87.69250412 12.54240233 85.1898047 12.5145185 82.68652344 12.48852539 C80.17272474 12.45202043 77.6590825 12.41142501 75.14543152 12.36587524 C73.58409297 12.33867202 72.0226396 12.3173105 70.46113586 12.30233765 C65.09531537 12.22417136 65.09531537 12.22417136 62.87402344 11.11352539 C62.62402344 3.48852539 62.62402344 3.48852539 64.87402344 0.11352539 C67.67676595 -0.1658495 70.25556479 -0.2584149 73.05761719 -0.21459961 C73.86892593 -0.21272644 74.68023468 -0.21085327 75.51612854 -0.20892334 C77.23353172 -0.20219535 78.95091938 -0.18826601 80.66821289 -0.16772461 C83.29750815 -0.1366403 85.92620348 -0.12676128 88.55566406 -0.12084961 C90.22298908 -0.11167665 91.89030799 -0.10129995 93.55761719 -0.08959961 C94.34518906 -0.08534973 95.13276093 -0.08109985 95.94419861 -0.07672119 C99.17129199 -0.03448575 101.79157725 0.08604333 104.87402344 1.11352539 C104.87402344 1.77352539 104.87402344 2.43352539 104.87402344 3.11352539 C105.86402344 3.15477539 106.85402344 3.19602539 107.87402344 3.23852539 C112.88940779 3.94920738 116.13659301 6.88538841 119.87402344 10.11352539 C120.84339844 10.93852539 121.81277344 11.76352539 122.81152344 12.61352539 C125.19287095 15.50000723 125.6165992 17.42377799 125.87402344 21.11352539 C126.53402344 21.11352539 127.19402344 21.11352539 127.87402344 21.11352539 C128.65272305 23.87814153 129.00224952 26.34071478 129.01446533 29.20974731 C129.02017548 30.01696732 129.02588562 30.82418732 129.0317688 31.65586853 C129.03344559 32.97126366 129.03344559 32.97126366 129.03515625 34.31323242 C129.04012115 35.24384995 129.04508606 36.17446747 129.05020142 37.13328552 C129.06480717 40.21264385 129.07162359 43.29195061 129.07714844 46.37133789 C129.08290264 48.51642864 129.08866034 50.66151938 129.09442139 52.80661011 C129.10492786 57.30735514 129.11077237 61.80808233 129.11425781 66.30883789 C129.11973174 72.05858668 129.14373781 77.80809737 129.17222977 83.55777168 C129.1909148 87.9914721 129.19606494 92.42511594 129.19759369 96.85885239 C129.20060917 98.97740857 129.20860013 101.09596402 129.22177887 103.21448135 C129.23895666 106.18898498 129.23693018 109.1629172 129.23046875 112.13745117 C129.23968353 113.00223587 129.24889832 113.86702057 129.25839233 114.75801086 C129.201647 123.15534513 127.34210798 130.89345356 122.31152344 137.73852539 C121.71210938 138.57641602 121.11269531 139.41430664 120.49511719 140.27758789 C119.96015625 140.88344727 119.42519531 141.48930664 118.87402344 142.11352539 C118.21402344 142.11352539 117.55402344 142.11352539 116.87402344 142.11352539 C116.87402344 142.77352539 116.87402344 143.43352539 116.87402344 144.11352539 C115.10404869 144.92789408 113.33301192 145.73995479 111.56152344 146.55102539 C110.57539063 147.00348633 109.58925781 147.45594727 108.57324219 147.92211914 C105.07179945 149.46761847 102.37637857 150.23913407 98.58088684 150.25396729 C97.70483795 150.25967743 96.82878906 150.26538757 95.92619324 150.27127075 C94.96771988 150.27238861 94.00924652 150.27350647 93.02172852 150.2746582 C91.50415955 150.28210556 91.50415955 150.28210556 89.95593262 150.28970337 C86.60179976 150.30433298 83.24771424 150.31112913 79.89355469 150.31665039 C77.56288146 150.32240215 75.23220824 150.32815988 72.90153503 150.33392334 C68.0097939 150.34443627 63.11806921 150.35027671 58.22631836 150.35375977 C51.96629606 150.35923838 45.70649194 150.38325184 39.44653797 150.41173172 C34.62946444 150.43038288 29.81244312 150.43556508 24.99533653 150.43709564 C22.68812559 150.4401182 20.38091547 150.44813328 18.07374001 150.46128082 C14.84008989 150.47838914 11.60696838 150.47644891 8.37329102 150.4699707 C7.42493881 150.47918549 6.47658661 150.48840027 5.49949646 150.49789429 C-5.87676152 150.42671947 -13.70127248 145.79526443 -21.61035156 137.79711914 C-23.98923888 135.15459225 -25.12597656 133.73667034 -25.12597656 130.11352539 C-26.11597656 130.11352539 -27.10597656 130.11352539 -28.12597656 130.11352539 C-28.14912689 116.49231196 -28.16690542 102.8711032 -28.17778873 89.24987411 C-28.18301165 82.92528337 -28.19009863 76.60070606 -28.20141602 70.27612305 C-28.21226582 64.17479571 -28.21825786 58.07348132 -28.22085381 51.97214508 C-28.22270426 49.64210049 -28.22631764 47.31205661 -28.23170662 44.98201752 C-28.23894476 41.72342893 -28.23996632 38.46489413 -28.23950195 35.20629883 C-28.24309723 34.23885239 -28.2466925 33.27140594 -28.25039673 32.27464294 C-28.24902206 31.38565811 -28.2476474 30.49667328 -28.24623108 29.58074951 C-28.24715287 28.81013058 -28.24807467 28.03951164 -28.24902439 27.24554062 C-28.12439355 25.08609694 -27.71994788 23.18893243 -27.12597656 21.11352539 C-26.46597656 21.11352539 -25.80597656 21.11352539 -25.12597656 21.11352539 C-25.01253906 20.38262695 -24.89910156 19.65172852 -24.78222656 18.89868164 C-23.6853216 14.24336476 -21.32667169 10.63758972 -18.12597656 7.11352539 C-15.78208203 5.7265597 -13.55084677 4.75832963 -10.98144531 3.86743164 C-8.92998939 3.27179568 -8.92998939 3.27179568 -8.12597656 1.11352539 C-5.39368536 0.17798803 -2.8716108 -0.00908738 0 0 Z " fill="#E77B2D" transform="translate(203.1259765625,181.886474609375)"/>



<path d="M0 0 C6.57692308 0.57692308 6.57692308 0.57692308 8 2 C7.99924046 4.14113803 7.94081264 6.28228612 7.859375 8.421875 C6.88888973 24.94693025 6.88888973 24.94693025 12.65405273 39.77905273 C18.67044619 45.79544619 24.8470233 46.94989174 33.1875 47.1875 C35.81604749 47.13983204 38.42815291 47.05861586 41.05151367 46.88745117 C43 47 43 47 45 49 C44.43181818 54.56818182 44.43181818 54.56818182 43 56 C22.55702006 58.8305997 22.55702006 58.8305997 14.70800781 54.83251953 C11.16712709 52.00037374 8.65403952 48.56261407 6.28149414 44.72875977 C4.82040283 42.75772003 3.18550603 41.62501566 1.234375 40.1484375 C-2.45543222 36.57339102 -2.66132841 32.86440425 -2.75390625 27.94921875 C-2.75295603 25.64853834 -2.7115601 23.35492612 -2.63793945 21.05541992 C-2.56213927 18.67617738 -2.53545685 16.30024158 -2.51757812 13.91992188 C-2.49500271 12.40880949 -2.46970941 10.89773471 -2.44140625 9.38671875 C-2.42976944 8.67529221 -2.41813263 7.96386566 -2.40614319 7.23088074 C-2.23576164 2.23576164 -2.23576164 2.23576164 0 0 Z " fill="#29b824ff" transform="translate(251,207)"/>
<path d="M0 0 C1.99427991 -0.06167629 3.9864753 -0.18183069 5.97802734 -0.30297852 C15.54032279 -0.5108545 15.54032279 -0.5108545 19.87524414 2.79638672 C22.131051 5.30666446 24.09456667 7.86304694 26.02880859 10.62475586 C28.19528696 13.01889567 30.28087896 15.21545408 33.13452148 16.77709961 C35.52300003 19.106782 35.51343373 20.81721797 35.5589447 24.0715332 C35.54771072 24.79034668 35.53647675 25.50916016 35.52490234 26.24975586 C35.52635757 26.99306152 35.52781281 27.73636719 35.52931213 28.50219727 C35.52765351 30.07238691 35.51609607 31.64259287 35.49536133 33.21264648 C35.46640992 35.61634355 35.47475026 38.01783455 35.48779297 40.42163086 C35.48155523 41.94768325 35.47316401 43.47372867 35.46240234 44.99975586 C35.46533798 45.71856934 35.46827362 46.43738281 35.47129822 47.17797852 C35.41587289 50.10911793 35.37109243 52.13569162 33.66186523 54.57788086 C31.31904479 56.0797517 29.74723656 56.04297555 27.02880859 55.62475586 C24.57084854 51.93781578 24.80192344 50.11911789 24.82568359 45.72631836 C24.81513416 44.34610059 24.80337757 42.96589162 24.79052734 41.58569336 C24.78022034 39.41729548 24.77880515 37.25012898 24.79882812 35.08178711 C24.81364141 32.98307891 24.79109484 30.88733641 24.76318359 28.78881836 C24.76543945 27.53536621 24.76769531 26.28191406 24.77001953 24.99047852 C23.77528713 20.47355465 21.73035909 19.24721614 18.02880859 16.62475586 C15.15380859 13.93725586 15.15380859 13.93725586 13.02880859 11.62475586 C13.02880859 10.96475586 13.02880859 10.30475586 13.02880859 9.62475586 C12.27672119 9.62999268 11.52463379 9.63522949 10.74975586 9.640625 C7.36361517 9.66132813 3.97748775 9.67439463 0.59130859 9.68725586 C-1.18469727 9.69982422 -1.18469727 9.69982422 -2.99658203 9.71264648 C-4.12128906 9.71586914 -5.24599609 9.7190918 -6.40478516 9.72241211 C-7.96797485 9.73026733 -7.96797485 9.73026733 -9.56274414 9.73828125 C-11.97119141 9.62475586 -11.97119141 9.62475586 -12.97119141 8.62475586 C-13.09619141 5.12475586 -13.09619141 5.12475586 -12.97119141 1.62475586 C-10.33212987 -1.01430567 -3.56281082 0.08593932 0 0 Z " fill="#29b824ff" transform="translate(223.97119140625,253.375244140625)"/>
<path d="M0 0 C2.5 1.5 2.5 1.5 4 4 C4.78550518 7.99298467 4.60146332 10.95397683 2.5625 14.5 C-1.23956792 16.72560073 -4.70349276 16.78118314 -9 16 C-11.4395583 14.22577578 -11.8366175 13.02218795 -12.3046875 10.09375 C-12.52691687 6.59036936 -12.32809877 4.54683128 -10.5 1.5 C-6.96411027 -0.62153384 -4.02098277 -0.791013 0 0 Z " fill="#29b824ff" transform="translate(236,225)"/>
<path d="M0 0 C2.5 1.5625 2.5 1.5625 4 4 C4.72125695 8.40768137 4.52001338 10.25937488 1.9375 13.9375 C-1.74062512 16.52001338 -3.59231863 16.72125695 -8 16 C-10.4375 14.5 -10.4375 14.5 -12 12 C-12.79841448 7.98323437 -12.61897146 5.0316191 -10.5 1.5 C-6.9683809 -0.61897146 -4.01676563 -0.79841448 0 0 Z " fill="#29b824ff" transform="translate(286,276)"/>
</svg>